<?xml version="1.0" standalone="no"?>
<!DOCTYPE svg PUBLIC "-//W3C//DTD SVG 20010904//EN"
 "http://www.w3.org/TR/2001/REC-SVG-20010904/DTD/svg10.dtd">
<svg version="1.0" xmlns="http://www.w3.org/2000/svg"
 width="702.000000pt" height="702.000000pt" viewBox="0 0 702.000000 702.000000"
 preserveAspectRatio="xMidYMid meet">
<metadata>
Created by potrace 1.11, written by Peter Selinger 2001-2013
</metadata>
<g transform="translate(0.000000,702.000000) scale(0.100000,-0.100000)"
fill="#000000" stroke="none">
<path d="M3298 7015 c-2 -2 -41 -6 -88 -9 -47 -3 -95 -8 -107 -10 -12 -3 -46
-7 -75 -10 -29 -4 -62 -8 -73 -10 -11 -2 -60 -11 -110 -20 -357 -66 -762 -217
-1085 -404 -145 -84 -355 -228 -443 -301 -12 -11 -53 -45 -92 -78 -144 -120
-369 -356 -484 -508 -33 -44 -65 -86 -71 -93 -6 -7 -38 -52 -70 -100 -292
-438 -491 -947 -560 -1437 -6 -44 -13 -93 -15 -110 -14 -95 -20 -225 -19 -415
0 -255 10 -384 40 -565 8 -49 17 -103 20 -119 3 -16 7 -32 9 -36 2 -4 7 -22
10 -41 3 -19 11 -52 16 -74 6 -22 14 -56 19 -75 28 -118 111 -354 167 -480 72
-161 176 -362 227 -440 80 -123 100 -152 143 -212 70 -97 136 -182 196 -251
73 -85 268 -280 357 -357 41 -36 77 -67 80 -70 42 -44 327 -238 470 -322 85
-50 361 -188 375 -188 3 0 25 -8 48 -19 171 -76 504 -173 707 -206 19 -3 46
-7 60 -10 14 -3 45 -7 70 -10 25 -3 61 -7 80 -10 183 -26 669 -26 820 -1 14 3
51 7 83 11 32 3 64 8 70 10 7 2 29 7 50 10 21 3 79 14 130 26 51 11 100 22
109 24 291 64 732 252 1011 430 113 72 329 228 373 270 6 5 35 30 65 55 115
97 374 367 444 464 16 23 32 43 35 46 11 9 115 154 161 225 183 279 348 642
435 950 40 143 87 373 99 480 4 28 8 61 11 75 24 133 24 694 0 815 -2 11 -7
47 -11 80 -13 115 -71 390 -106 500 -78 250 -143 413 -239 600 -79 154 -168
307 -182 313 -4 2 -8 8 -8 14 0 9 -57 98 -70 108 -3 3 -20 25 -37 50 -17 25
-39 55 -49 67 -11 12 -30 37 -44 55 -90 118 -312 350 -434 453 -32 28 -64 55
-70 60 -27 26 -219 168 -301 222 -342 228 -742 400 -1140 491 -49 12 -106 24
-125 27 -19 3 -42 8 -50 10 -22 6 -112 19 -215 30 -33 4 -73 9 -90 12 -34 4
-522 12 -527 8z"/>
</g>
</svg>
